<svg width="23" height="23" viewBox="0 0 23 23" fill="none" xmlns="http://www.w3.org/2000/svg">
<path fill-rule="evenodd" clip-rule="evenodd" d="M6.77588 0.110376C7.99775 0.054126 8.38734 0.041626 11.4998 0.041626C14.6123 0.041626 15.0019 0.0551676 16.2228 0.110376C17.4436 0.165584 18.2769 0.360376 19.0061 0.642668C19.7696 0.931209 20.4623 1.38225 21.0353 1.96558C21.6186 2.53746 22.0686 3.22913 22.3561 3.99371C22.6394 4.72288 22.8332 5.55621 22.8894 6.77496C22.9457 7.99892 22.9582 8.3885 22.9582 11.5C22.9582 14.6125 22.9446 15.002 22.8894 16.2239C22.8342 17.4427 22.6394 18.276 22.3561 19.0052C22.0686 19.7698 21.6178 20.4627 21.0353 21.0354C20.4623 21.6187 19.7696 22.0687 19.0061 22.3562C18.2769 22.6395 17.4436 22.8333 16.2248 22.8895C15.0019 22.9458 14.6123 22.9583 11.4998 22.9583C8.38734 22.9583 7.99775 22.9447 6.77588 22.8895C5.55713 22.8343 4.7238 22.6395 3.99463 22.3562C3.22996 22.0687 2.53715 21.6179 1.96442 21.0354C1.38148 20.4632 0.930373 19.7707 0.642546 19.0062C0.360254 18.277 0.166504 17.4437 0.110254 16.225C0.0540039 15.001 0.0415039 14.6114 0.0415039 11.5C0.0415039 8.38746 0.0550456 7.99788 0.110254 6.77704C0.165462 5.55621 0.360254 4.72288 0.642546 3.99371C0.930798 3.22921 1.38225 2.53674 1.96546 1.96454C2.53738 1.38173 3.2295 0.930629 3.99359 0.642668C4.72275 0.360376 5.55609 0.166626 6.77484 0.110376H6.77588ZM16.13 2.17288C14.9217 2.11767 14.5592 2.10621 11.4998 2.10621C8.44046 2.10621 8.07796 2.11767 6.86963 2.17288C5.75192 2.22392 5.14567 2.41038 4.7415 2.56767C4.20713 2.776 3.82484 3.02288 3.4238 3.42392C3.04363 3.79376 2.75107 4.244 2.56755 4.74163C2.41025 5.14579 2.2238 5.75204 2.17275 6.86975C2.11755 8.07808 2.10609 8.44058 2.10609 11.5C2.10609 14.5593 2.11755 14.9218 2.17275 16.1302C2.2238 17.2479 2.41025 17.8541 2.56755 18.2583C2.75088 18.7552 3.04359 19.2062 3.4238 19.576C3.79359 19.9562 4.24463 20.2489 4.7415 20.4323C5.14567 20.5895 5.75192 20.776 6.86963 20.827C8.07796 20.8822 8.43942 20.8937 11.4998 20.8937C14.5603 20.8937 14.9217 20.8822 16.13 20.827C17.2478 20.776 17.854 20.5895 18.2582 20.4323C18.7925 20.2239 19.1748 19.977 19.5759 19.576C19.9561 19.2062 20.2488 18.7552 20.4321 18.2583C20.5894 17.8541 20.7759 17.2479 20.8269 16.1302C20.8821 14.9218 20.8936 14.5593 20.8936 11.5C20.8936 8.44058 20.8821 8.07808 20.8269 6.86975C20.7759 5.75204 20.5894 5.14579 20.4321 4.74163C20.2238 4.20725 19.9769 3.82496 19.5759 3.42392C19.206 3.04378 18.7558 2.75122 18.2582 2.56767C17.854 2.41038 17.2478 2.22392 16.13 2.17288ZM10.0363 15.0323C10.8536 15.3725 11.7638 15.4184 12.6112 15.1622C13.4587 14.9059 14.1909 14.3634 14.6828 13.6273C15.1747 12.8912 15.3957 12.0071 15.3082 11.1261C15.2207 10.2451 14.8301 9.42181 14.203 8.79683C13.8032 8.39733 13.3198 8.09143 12.7877 7.90115C12.2555 7.71088 11.6878 7.64096 11.1254 7.69643C10.5629 7.75191 10.0198 7.93139 9.53505 8.22197C9.05031 8.51255 8.63603 8.90698 8.32203 9.37689C8.00803 9.84679 7.80212 10.3805 7.71912 10.9395C7.63613 11.4985 7.67812 12.069 7.84207 12.6099C8.00601 13.1507 8.28784 13.6485 8.66725 14.0674C9.04667 14.4862 9.51424 14.8158 10.0363 15.0323ZM7.33525 7.33538C7.88215 6.78847 8.53142 6.35465 9.24598 6.05867C9.96054 5.76269 10.7264 5.61035 11.4998 5.61035C12.2733 5.61035 13.0391 5.76269 13.7537 6.05867C14.4683 6.35465 15.1175 6.78847 15.6644 7.33538C16.2113 7.88228 16.6451 8.53154 16.9411 9.2461C17.2371 9.96066 17.3894 10.7265 17.3894 11.5C17.3894 12.2734 17.2371 13.0393 16.9411 13.7538C16.6451 14.4684 16.2113 15.1176 15.6644 15.6645C14.5599 16.7691 13.0619 17.3896 11.4998 17.3896C9.93781 17.3896 8.43977 16.7691 7.33525 15.6645C6.23074 14.56 5.61023 13.062 5.61023 11.5C5.61023 9.93794 6.23074 8.43989 7.33525 7.33538ZM18.6957 6.48746C18.8312 6.35961 18.9397 6.20588 19.0147 6.03535C19.0898 5.86482 19.1298 5.68097 19.1326 5.49468C19.1353 5.30839 19.1006 5.12345 19.0305 4.9508C18.9605 4.77816 18.8565 4.62132 18.7248 4.48958C18.5931 4.35784 18.4362 4.25387 18.2636 4.18383C18.0909 4.11379 17.906 4.0791 17.7197 4.08182C17.5334 4.08453 17.3496 4.1246 17.179 4.19964C17.0085 4.27469 16.8548 4.38318 16.7269 4.51871C16.4783 4.78228 16.3422 5.13238 16.3474 5.49468C16.3527 5.85698 16.499 6.20296 16.7552 6.45917C17.0114 6.71538 17.3574 6.86166 17.7197 6.86694C18.082 6.87222 18.4321 6.73609 18.6957 6.48746Z" fill="#D2E0E9"/>
</svg>
