<svg width="25" height="25" viewBox="0 0 25 25" fill="none" xmlns="http://www.w3.org/2000/svg">
<path d="M15.2834 15.8732C16.5353 15.613 17.6713 15.1619 18.5544 14.4995C20.0624 13.3685 20.8332 11.6217 20.8332 9.89577C20.8332 8.68499 20.3742 7.55468 19.5795 6.59728C19.1367 6.06379 20.4319 2.08326 19.2811 2.61936C18.1303 3.15545 16.443 4.34207 15.5585 4.08019C14.6116 3.79981 13.5797 3.64576 12.4998 3.64576C11.5619 3.64576 10.6602 3.76197 9.8189 3.97624C8.59598 4.28768 7.42645 3.12493 6.24984 2.61936C5.0732 2.11378 5.71525 6.23082 5.36577 6.66374C4.60462 7.60681 4.1665 8.71291 4.1665 9.89577C4.1665 11.6217 5.09924 13.3685 6.60729 14.4995C7.61187 15.253 8.87171 15.7331 10.2811 15.9697" stroke="#D2E0E9" stroke-width="2.08333" stroke-linecap="round"/>
<path d="M10.281 15.9697C9.67764 16.6338 9.37598 17.2645 9.37598 17.8617C9.37598 18.4588 9.37598 19.9721 9.37598 22.4013" stroke="#D2E0E9" stroke-width="2.08333" stroke-linecap="round"/>
<path d="M15.2837 15.8732C15.8554 16.6236 16.1413 17.2973 16.1413 17.8945C16.1413 18.4917 16.1413 19.9939 16.1413 22.4013" stroke="#D2E0E9" stroke-width="2.08333" stroke-linecap="round"/>
<path d="M3.125 16.2581C3.59316 16.3153 3.94039 16.5306 4.16667 16.9038C4.50609 17.4637 5.76781 19.5406 7.20057 19.5406C8.15578 19.5406 8.88099 19.5406 9.37625 19.5406" stroke="#D2E0E9" stroke-width="2.08333" stroke-linecap="round"/>
</svg>
