<svg width="110" height="110" viewBox="0 0 110 110" fill="none" xmlns="http://www.w3.org/2000/svg">
<path d="M0 0V110H110V0H0ZM59.8616 85.7902C59.8616 96.4955 53.5759 101.382 44.4174 101.382C36.1429 101.382 31.3549 97.1094 28.8996 91.9286L37.3214 86.846C38.942 89.7188 40.4152 92.1496 43.9754 92.1496C47.3638 92.1496 49.5246 90.8237 49.5246 85.6429V50.5067H59.8616V85.7902ZM84.317 101.382C74.7165 101.382 68.5045 96.8147 65.4844 90.8237L73.9062 85.9621C76.1161 89.5714 79.0134 92.2478 84.096 92.2478C88.3683 92.2478 91.1183 90.1116 91.1183 87.1406C91.1183 83.6049 88.3192 82.3527 83.5804 80.2656L81.0022 79.1607C73.5379 75.9933 68.6027 71.9911 68.6027 63.5692C68.6027 55.8103 74.5201 49.9174 83.7277 49.9174C90.308 49.9174 95.0223 52.2009 98.4107 58.192L90.3571 63.3482C88.5893 60.1808 86.6741 58.9286 83.7031 58.9286C80.683 58.9286 78.7679 60.8438 78.7679 63.3482C78.7679 66.442 80.683 67.6942 85.1272 69.6339L87.7054 70.7388C96.4955 74.4955 101.431 78.3504 101.431 86.9933C101.431 96.2746 94.1138 101.382 84.317 101.382Z" fill="#0487E2"/>
</svg>
