<svg width="25" height="25" viewBox="0 0 25 25" fill="none" xmlns="http://www.w3.org/2000/svg">
<path fill-rule="evenodd" clip-rule="evenodd" d="M9.82204 9.34275H13.6908V11.2698C14.2481 10.1615 15.6772 9.16567 17.8241 9.16567C21.9397 9.16567 22.9168 11.3719 22.9168 15.4198V22.9167H18.7502V16.3417C18.7502 14.0365 18.1929 12.7365 16.7741 12.7365C14.8064 12.7365 13.9887 14.1375 13.9887 16.3407V22.9167H9.82204V9.34275ZM2.67725 22.7396H6.84391V9.16567H2.67725V22.7396ZM7.44079 4.73962C7.44094 5.08887 7.37168 5.43466 7.23702 5.7569C7.10237 6.07914 6.90501 6.37141 6.65641 6.61671C6.15266 7.11736 5.4708 7.3976 4.76058 7.39587C4.05161 7.3954 3.37132 7.11587 2.86683 6.61775C2.61913 6.37162 2.42244 6.07902 2.28802 5.75674C2.1536 5.43446 2.0841 5.08882 2.0835 4.73962C2.0835 4.03442 2.36475 3.35942 2.86787 2.8615C3.37192 2.36271 4.0525 2.08306 4.76162 2.08337C5.47204 2.08337 6.15329 2.36358 6.65641 2.8615C7.1585 3.35942 7.44079 4.03442 7.44079 4.73962Z" fill="#D2E0E9"/>
</svg>
