<svg width="110" height="110" viewBox="0 0 110 110" fill="none" xmlns="http://www.w3.org/2000/svg">
<path d="M55 0C85.25 0 110 24.75 110 55C110 85.25 85.25 110 55 110C24.75 110 0 85.25 0 55C0 24.75 24.75 0 55 0ZM44 73.2188C44.6875 76.3125 44.6875 79.0625 44 81.4688L43.6562 82.5C43.6562 82.8438 43.3125 83.1875 43.3125 83.1875C42.625 84.5625 41.9375 85.5938 40.9063 86.9688C37.8125 90.4063 33.3438 91.7812 31.2812 90.75C29.2188 89.7188 30.25 84.5625 34.0313 80.7812C38.1563 76.6562 43.6562 73.9062 43.6562 73.9062L44 73.2188ZM89.375 23.375C86.9688 13.75 70.8125 10.3125 55.3438 15.8125C46.4062 19.25 36.4375 24.4063 29.2188 30.9375C20.625 38.8438 19.5938 45.7188 19.9375 48.4688C22 58.4375 35.75 65.3125 41.5938 70.125C39.875 70.8125 27.5 77 24.75 83.5313C21.6563 90.4063 25.0938 95.2188 27.5 95.5625C34.7188 97.625 42.2813 93.8438 46.0625 88C49.8438 82.1563 49.5 74.9375 47.7813 71.1562C50.4553 70.3305 53.2978 70.212 56.0313 70.8125C65.6562 71.8438 67.7188 78.0312 67.0312 80.4375C66.3438 82.8438 64.625 84.2188 63.9375 84.9062C63.25 85.25 62.9063 85.5938 63.25 85.5938C63.25 85.9375 63.5938 85.9375 64.2812 85.9375C64.9688 85.9375 69.4375 83.875 69.4375 79.0625C69.7812 73.2188 63.9375 66.6875 53.9688 66.6875C49.8438 66.6875 47.0938 67.0312 45.375 67.7188C45.375 67.375 45.0312 67.375 45.0312 67.375C38.8438 60.8438 27.5 56.0312 27.8438 47.0938C27.8438 44 29.2188 35.4062 49.8438 25.0938C66.6875 16.5 80.4375 18.9062 82.8438 24.0625C86.2813 31.2813 75.625 45.0312 58.0938 47.0938C51.2188 47.7812 47.7812 45.375 47.0938 44.3438C46.0625 43.3125 46.0625 43.3125 45.7188 43.3125C45.0313 43.6562 45.375 44.3438 45.7188 45.0312C46.4063 46.4062 48.4688 48.8125 52.25 50.1875C55.3438 51.2188 63.25 51.9062 72.875 48.125C83.5312 44 91.7812 32.6562 89.375 23.0313V23.375Z" fill="#0487E2"/>
</svg>
